<?xml version="1.0" encoding="utf-8"?>
<svg version="1.1" id="Layer_1" xmlns="http://www.w3.org/2000/svg" x="0px" y="0px" viewBox="0 0 122.88 71.9"
     style="enable-background:new 0 0 122.88 71.9" xml:space="preserve"><g><path d="M29.56,0h88.02c1.57,0,2.95,0.64,3.9,1.67c0.96,1.03,1.5,2.46,1.38,4.03l-4.42,60.49c-0.09,1.18-0.53,2.28-1.22,3.2 c-0.14,0.3-0.33,0.57-0.59,0.8c-0.17,0.15-0.36,0.28-0.56,0.37c-1.05,0.83-2.36,1.33-3.74,1.33l-88.02,0 c-1.57,0-2.95-0.64-3.91-1.67c-0.96-1.03-1.49-2.46-1.38-4.03l1.25-10.18h4.37l-1.08,7.78l0,0l33.11-30.93L27.67,7.72l-0.29,3.93 H23l0.43-5.95c0.11-1.57,0.86-3,1.97-4.03C26.51,0.64,27.99,0,29.56,0L29.56,0L29.56,0z M2.19,49.78C0.98,49.78,0,48.8,0,47.59 c0-1.21,0.98-2.19,2.19-2.19h28.89c1.21,0,2.19,0.98,2.19,2.19c0,1.21-0.98,2.19-2.19,2.19H2.19L2.19,49.78z M13.02,36.22 c-1.21,0-2.19-0.98-2.19-2.19c0-1.21,0.98-2.19,2.19-2.19h25.06c1.21,0,2.19,0.98,2.19,2.19c0,1.21-0.98,2.19-2.19,2.19H13.02 L13.02,36.22z M2.19,22.66C0.98,22.66,0,21.68,0,20.47c0-1.21,0.98-2.19,2.19-2.19h28.89c1.21,0,2.19,0.98,2.19,2.19 c0,1.21-0.98,2.19-2.19,2.19H2.19L2.19,22.66z M59.87,35.64L25.74,67.52h85.53L83.2,35.64l-10.64,8.54l0,0 c-0.83,0.67-2.01,0.71-2.8,0.03L59.87,35.64L59.87,35.64L59.87,35.64z M86.74,32.81l27.5,31.23l4.13-56.6L86.74,32.81L86.74,32.81 L86.74,32.81z M30.71,4.37l40.73,35.31l44.03-35.31H30.71L30.71,4.37L30.71,4.37z"/></g></svg>
